name C:\Users\antoi\Documents\MyRepositories\predsim_tutorial\Results\Case_0\GRF.mot
datacolumns 19
datarows 15
range 0.73349573 0.88908573
endheader 
time	r_ground_force_vx	r_ground_force_vy	r_ground_force_vz	r_ground_force_px	r_ground_force_py	r_ground_force_pz	l_ground_force_vx	l_ground_force_vy	l_ground_force_vz	l_ground_force_px	l_ground_force_py	l_ground_force_pz	r_ground_torque_x	r_ground_torque_y	r_ground_torque_z	l_ground_torque_x	l_ground_torque_y	l_ground_torque_z	
          0.73349573	          0.00000000	          0.00000000	          0.00000000	          0.00000000	          0.00000000	          0.00000000	        -31.17585928	        572.96995531	         14.15756442	          1.01439120	          0.00000000	         -0.04551938	          0.00000000	          0.00000000	          0.00000000	          0.00000000	          5.30658732	          0.00000000	
          0.74460930	          0.00000000	          0.00000000	          0.00000000	          0.00000000	          0.00000000	          0.00000000	        -25.96812362	        559.05873266	         15.30345582	          1.01966526	          0.00000000	         -0.04551269	          0.00000000	          0.00000000	          0.00000000	          0.00000000	          5.37602792	          0.00000000	
          0.75572287	          0.00000000	          0.00000000	          0.00000000	          0.00000000	          0.00000000	          0.00000000	        -22.13299243	        549.65938198	         16.54232087	          1.02548109	          0.00000000	         -0.04546207	          0.00000000	          0.00000000	          0.00000000	          0.00000000	          5.30714590	          0.00000000	
          0.76683644	          0.00000000	          0.00000000	          0.00000000	          0.00000000	          0.00000000	          0.00000000	        -19.26745208	        543.67442589	         17.39411786	          1.03158972	          0.00000000	         -0.04538046	          0.00000000	          0.00000000	          0.00000000	          0.00000000	          5.09086406	          0.00000000	
          0.77795001	          0.00000000	          0.00000000	          0.00000000	          0.00000000	          0.00000000	          0.00000000	        -16.78221963	        540.08324831	         17.91390912	          1.03778731	          0.00000000	         -0.04530299	          0.00000000	          0.00000000	          0.00000000	          0.00000000	          4.77739734	          0.00000000	
          0.78906358	          0.00000000	          0.00000000	          0.00000000	          0.00000000	          0.00000000	          0.00000000	        -15.48924438	        538.06742681	         18.12525751	          1.04385735	          0.00000000	         -0.04530972	          0.00000000	          0.00000000	          0.00000000	          0.00000000	          4.35213843	          0.00000000	
          0.80017716	          0.00000000	          0.00000000	          0.00000000	          0.00000000	          0.00000000	          0.00000000	        -14.13885066	        536.78120802	         18.18581970	          1.04968123	          0.00000000	         -0.04548962	          0.00000000	          0.00000000	          0.00000000	          0.00000000	          3.79428639	          0.00000000	
          0.81129073	          0.00000000	          0.00000000	          0.00000000	          0.00000000	          0.00000000	          0.00000000	        -12.37105945	        535.00832935	         18.19572536	          1.05528579	          0.00000000	         -0.04585554	          0.00000000	          0.00000000	          0.00000000	          0.00000000	          3.12147600	          0.00000000	
          0.82240430	          0.00000000	          0.00000000	          0.00000000	          0.00000000	          0.00000000	          0.00000000	        -10.15680723	        532.20661534	         18.11360433	          1.06065312	          0.00000000	         -0.04636270	          0.00000000	          0.00000000	          0.00000000	          0.00000000	          2.37047236	          0.00000000	
          0.83351787	          0.00000000	          0.00000000	          0.00000000	          0.00000000	          0.00000000	          0.00000000	         -7.58514278	        528.05793724	         17.67431471	          1.06587018	          0.00000000	         -0.04695122	          0.00000000	          0.00000000	          0.00000000	          0.00000000	          1.62963959	          0.00000000	
          0.84463144	          0.00000000	          0.00000000	          0.00000000	          0.00000000	          0.00000000	          0.00000000	         -5.00178553	        523.11652289	         17.12658582	          1.07107266	          0.00000000	         -0.04757455	          0.00000000	          0.00000000	          0.00000000	          0.00000000	          0.96731886	          0.00000000	
          0.85574501	          0.00000000	          0.00000000	          0.00000000	          0.00000000	          0.00000000	          0.00000000	         -2.26123663	        518.23212042	         16.55825137	          1.07625558	          0.00000000	         -0.04822394	          0.00000000	          0.00000000	          0.00000000	          0.00000000	          0.39959658	          0.00000000	
          0.86685859	          0.00000000	          0.00000000	          0.00000000	          0.00000000	          0.00000000	          0.00000000	          0.86299286	        514.10414095	         15.87175800	          1.08143142	          0.00000000	         -0.04890183	          0.00000000	          0.00000000	          0.00000000	          0.00000000	         -0.04453022	          0.00000000	
          0.87797216	          0.00000000	          0.00000000	          0.00000000	          0.00000000	          0.00000000	          0.00000000	          4.11870031	        511.03964847	         15.22470742	          1.08656329	          0.00000000	         -0.04960928	          0.00000000	          0.00000000	          0.00000000	          0.00000000	         -0.40065347	          0.00000000	
          0.88908573	          0.00000000	          0.00000000	          0.00000000	          0.00000000	          0.00000000	          0.00000000	          6.82882490	        509.15956859	         14.65292387	          1.09152939	          0.00000000	         -0.05035015	          0.00000000	          0.00000000	          0.00000000	          0.00000000	         -0.68921344	          0.00000000	
